<svg id="Layer_1" enable-background="new 0 0 491.5 491.5" height="512" viewBox="0 0 491.5 491.5" width="512" xmlns="http://www.w3.org/2000/svg" xmlns:xlink="http://www.w3.org/1999/xlink"><linearGradient id="Layer_x0020_1_1_" gradientUnits="userSpaceOnUse" x1="245.759" x2="245.759" y1="31.309" y2="460.211"><stop offset="0" stop-color="#f704fe"/><stop offset="1" stop-color="#24bce3"/></linearGradient><path id="Layer_x0020_1" d="m307.3 405.7c-.8 0-1.7-.2-2.4-.6-1.6-.9-2.5-2.7-2.4-4.5l4.5-61.4c0-.7.2-1.4.6-2.1v-.1l87.6-151.7v-36.2h-359.7v291.6c0 10.8 8.8 19.6 19.5 19.6h320.7c10.6 0 19.4-8.8 19.5-19.6v-129l-32.8 56.8c-.4.7-.9 1.2-1.5 1.6l-50.9 34.7c-.8.6-1.7.9-2.7.9zm8.8-58.4-3.2 44 36.4-24.8zm91.1-163.4 38.1 22 7.5-13c5.1-8.9 3.1-16.1.5-20.6-4.2-7.3-12.7-12.2-21.1-12.2-5.2 0-12.5 1.9-17.6 10.8zm33.3 30.3-38.1-22-83.9 145.4 38.1 22c28.5-49.4 55.4-96 83.9-145.4zm-169.3 191.5h-184.8c-2.6 0-4.8-2.1-4.8-4.8s2.2-4.8 4.8-4.8h184.8c2.7 0 4.8 2.2 4.8 4.8s-2.1 4.8-4.8 4.8zm4.8-64.2h-189.6c-2.6 0-4.8-2.2-4.8-4.8 0-2.7 2.2-4.8 4.8-4.8h189.6c2.7 0 4.8 2.2 4.8 4.8 0 2.7-2.2 4.8-4.8 4.8zm32.9-64.1h-222.5c-2.6 0-4.8-2.1-4.8-4.8s2.2-4.8 4.8-4.8h222.4c2.7 0 4.8 2.2 4.8 4.8.1 2.6-2.1 4.8-4.7 4.8zm35.5-64.2h-258c-2.6 0-4.8-2.1-4.8-4.8s2.2-4.8 4.8-4.8h257.9c2.7 0 4.8 2.2 4.8 4.8.1 2.7-2.1 4.8-4.7 4.8zm50.9-73.7v-46.1c0-4.2-1.3-8.1-3.6-11.3-4.4 23.6-25.2 41.5-50.1 41.5-9.3 0-16.8-7.5-16.8-16.8s7.5-16.8 16.8-16.8c9.2 0 16.7-7.1 17.3-16.1h-50.5c-.6 27.5-23.2 49.7-50.9 49.7-9.3 0-16.8-7.5-16.8-16.8s7.5-16.8 16.8-16.8c9.2 0 16.7-7.1 17.3-16.1h-50.5c-.6 27.5-23.2 49.7-50.9 49.7-9.3 0-16.8-7.5-16.8-16.8s7.5-16.8 16.8-16.8c9.2 0 16.7-7.1 17.3-16.1h-50.5c-.6 27.5-23.2 49.7-50.9 49.7-9.3 0-16.8-7.5-16.8-16.8s7.5-16.8 16.8-16.8c9.2 0 16.7-7.1 17.3-16.1h-51.5c-10.8 0-19.6 8.8-19.6 19.6v46.1zm-306.1-25.5c-4 0-7.2-3.2-7.2-7.2s3.2-7.2 7.2-7.2c14.9 0 27-12.1 27-26.9 0-14.9-12.1-26.9-27-26.9-11.9 0-22 7.7-25.6 18.4h-14.9c3.9-18.7 20.6-32.8 40.5-32.8 22.8 0 41.3 18.5 41.3 41.3s-18.5 41.3-41.3 41.3zm84.1 0c-4 0-7.2-3.2-7.2-7.2s3.2-7.2 7.2-7.2c14.9 0 27-12.1 27-26.9 0-14.9-12.1-26.9-27-26.9-11.9 0-22 7.7-25.6 18.4h-14.9c3.9-18.7 20.6-32.8 40.5-32.8 22.8 0 41.3 18.5 41.3 41.3.1 22.7-18.5 41.3-41.3 41.3zm84.2 0c-4 0-7.2-3.2-7.2-7.2s3.2-7.2 7.2-7.2c14.9 0 26.9-12.1 26.9-26.9 0-14.9-12.1-26.9-26.9-26.9-11.9 0-22 7.7-25.6 18.4h-14.9c3.9-18.7 20.6-32.8 40.5-32.8 22.8 0 41.3 18.5 41.3 41.3 0 22.7-18.5 41.3-41.3 41.3zm84.1 0c-4 0-7.2-3.2-7.2-7.2s3.2-7.2 7.2-7.2c14.9 0 27-12.1 27-26.9 0-14.9-12.1-26.9-27-26.9-11.9 0-22 7.7-25.6 18.4h-14.9c3.9-18.7 20.6-32.8 40.5-32.8 22.8 0 41.3 18.5 41.3 41.3.1 22.8-18.5 41.3-41.3 41.3z" fill="url(#Layer_x0020_1_1_)"/></svg>